<svg xmlns="http://www.w3.org/2000/svg" width="16" height="16">
  <path d="M 8 0 C 4.122 0 1 0.892 1 2 C 1 3.108 4.122 4 8 4 C 11.878 4 15 3.108 15 2 C 15 0.892 11.878 0 8 0 z M 1 3.6132812 L 1 5 C 1 6.108 4.122 7 8 7 C 11.878 7 15 6.108 15 5 L 15 3.6132812 C 14.508343 3.9441751 13.921067 4.179081 13.228516 4.3769531 C 11.83352 4.7755233 10.015672 5 8 5 C 5.9843282 5 4.1664799 4.7755233 2.7714844 4.3769531 C 2.078932 4.179081 1.4916573 3.9441751 1 3.6132812 z M 1 6.6132812 L 1 8 C 1 9.108 4.122 10 8 10 C 11.878 10 15 9.108 15 8 L 15 6.6132812 C 14.508343 6.9441749 13.921067 7.179081 13.228516 7.3769531 C 11.83352 7.7755233 10.015672 8 8 8 C 5.9843282 8 4.1664799 7.7755233 2.7714844 7.3769531 C 2.078932 7.179081 1.4916573 6.9441749 1 6.6132812 z M 1 9.6132812 L 1 11 C 1 12.108 4.122 13 8 13 C 8.7004978 13 9.3627814 12.962428 10 12.908203 L 10 10.912109 C 9.3590904 10.9638 8.6976331 11 8 11 C 5.9843282 11 4.1664799 10.775523 2.7714844 10.376953 C 2.078932 10.179081 1.4916573 9.9441752 1 9.6132812 z M 15 9.6132812 C 14.779668 9.7615688 14.533044 9.8849614 14.273438 10 L 15 10 L 15 9.6132812 z M 11 11 L 11 16 L 16 16 L 16 11 L 11 11 z M 12 12 L 13 12 L 13 13 L 14 13 L 14 12 L 15 12 L 15 14 L 14 14 L 14 15 L 13 15 L 13 14 L 12 14 L 12 12 z M 1 12.613281 L 1 14 C 1 15.108 4.122 16 8 16 C 8.7004978 16 9.3627814 15.962428 10 15.908203 L 10 13.912109 C 9.3590904 13.9638 8.6976331 14 8 14 C 5.9843282 14 4.1664799 13.775523 2.7714844 13.376953 C 2.078932 13.179081 1.4916573 12.944175 1 12.613281 z " fill="#c0bfbc" />
</svg>
